# xmcd CD database file
#
# Track frame offsets:
#	150
#	13046
#	41853
#	64279
#	82530
#	100733
#	128919
#	147809
#	167559
#	182674
#	215355
#	230915
#	253667
#	276596
#
# Disc length: 4093 seconds
#
# Revision: 0
# Processed by: cddbd v1.5.1PL2 Copyright (c) Steve Scherf et al.
# Submitted via: CDex 1.51
#
DISCID=c70ffb0e
DTITLE=The Panhandlers - Looks Can Be Deceiving
DYEAR=1900
DGENRE=Country
TTITLE0=Do You Feel It Too
TTITLE1=Kill The Pain
TTITLE2=Crazy Stupid Bitch
TTITLE3=Perpetual Blues Machine
TTITLE4=Any Other Way
TTITLE5=Stella and Dave
TTITLE6=Sweet Marie
TTITLE7=When My Heart Speaks
TTITLE8=There Goes The Town
TTITLE9=Leroy in Valle Hermoso
TTITLE10=Beast Of Burden
TTITLE11=What She Said to Me
TTITLE12=Buck Skin Dunn
TTITLE13=Looks Can Be Deceiving
EXTD=
EXTT0=
EXTT1=
EXTT2=
EXTT3=
EXTT4=
EXTT5=
EXTT6=
EXTT7=
EXTT8=
EXTT9=
EXTT10=
EXTT11=
EXTT12=
EXTT13=
PLAYORDER=
